# xmcd
#
# Track frame offsets:
#	150
#	9430
#	21383
#	31358
#	48470
#	58843
#	65640
#	75415
#	85545
#	98418
#	106608
#	124728
#	135775
#	146765
#	157533
#	170658
#	187550
#	197658
#	211725
#	228703
#	243405
#	255918
#	268058
#	280068
#	293373
#
# Disc length: 4098 seconds
#
# Revision: 9
# Processed by: cddbd v1.5.2PL0 Copyright (c) Steve Scherf et al.
# Submitted via: audiograbber 1.83.01
#
DISCID=3b100019
DTITLE=50 Years Of Bluegrass Hits - 50 Years Of Bluegrass Hits 1
DYEAR=2000
DGENRE=Bluegrass
TTITLE0=Jim and Jesse and the Virginia Boys - The Midnight Train
TTITLE1=The Osborne Brothers - Kentucky Waltz 
TTITLE2=Joe Maphis - Foggy Mountain Breakdown
TTITLE3=Betty Jean Robinson and the Nashville Grass - Tramp on the Street
TTITLE4=Mac Wiseman - Love Letters in the Sand
TTITLE5=Benny Martin and Josh Graves - Salty Dog Blues
TTITLE6=The Bluegrass Cardinals - Just A Little Talk with Jesus
TTITLE7=Rose Lee Maphis - Uncle Pen
TTITLE8=Mac Wiseman and the Osborne Brothers - Shackles and Chains
TTITLE9=Don Reno and the Tennessee Cut-Ups - Charlotte Breakdown
TTITLE10=Mearle Travis - Dark as a Dungeon
TTITLE11=Jim and Jesse and the Virginia Boys - Are you Missing Me
TTITLE12=Carl Story and his Rambling Mountaineers - I Saw the Light
TTITLE13=The Osborne Brothers - Sunny Side of the Mountain
TTITLE14=Rose Lee Maphis - Sweeter than the Flowers
TTITLE15=The Stonemans - Muleskinner Blues
TTITLE16=Don Reno and Bill Harrell and the Tennessee Cut-Ups - I Know You're Marr
TTITLE16=ied
TTITLE17=Joe Maphis - Memories of Maybelle
TTITLE18=Donna Stoneman - Lefe's Railway to Heaven
TTITLE19=Johnny Gimble and Benny Martin - Dueling Fiddles
TTITLE20=Jim and Jesse and the Virginia Boys - Paradise
TTITLE21=The Bluegrass Cardinals - I Wonder Where You are Tonight
TTITLE22=The Osborne Brothers - Reuben
TTITLE23=Joe and Rose Lee Maphis - Maple on the Hill
TTITLE24=Lester Flatt's Nashville Grass - What Would you Give in Exchange For Y
TTITLE24=our Soul
EXTD=YEAR: 2000 ID3G: 89
EXTT0=
EXTT1=
EXTT2=
EXTT3=
EXTT4=
EXTT5=
EXTT6=
EXTT7=
EXTT8=
EXTT9=
EXTT10=
EXTT11=
EXTT12=
EXTT13=
EXTT14=
EXTT15=
EXTT16=
EXTT17=
EXTT18=
EXTT19=
EXTT20=
EXTT21=
EXTT22=
EXTT23=
EXTT24=
PLAYORDER=
